<svg xmlns="http://www.w3.org/2000/svg" width="488" height="400"><path d="M215.402 23.607l3.942.245 4.082.534 3.313-.254 1.989.35 2.13 1.244 7.032-2.826 2.147-1.912 1.521-6.687 2.243-2.932 1.535-.901 2.264-.469 1.318 4.73.884 6.182.804 3.277 1.749 2.643 2.932 4.11-.832 3.145-.072 2.248.631 3.985 1.491 5.211 1.168 1.373 1.263.774 2.251 1.008 2.657-.028.922 1.022 2.97 2.549 2.205.724-1.538 1.991-.938 2.481-1.153 2.32-1.847 2.137-.316 1.605.626 1.555 3.807 1.834 6.94 2.412 2.386 1.862 4.742 3.535 4.575 2.783 1.541.731-.334 2.094-.424 1.525-1.554 2.188-.546 1.35-.038 1.562.24 1.518.875 1.321.827 1.621-.729.795-.454 1.335-.191 1.197-.704 2.152-.131 5.174-1.302 4.677-1.088 1.532-1.714-.023-1.193.868.1 1.832-.035.978-.313 1.022 1.987 1.147 1.138 1.183.579 1.854-.301 1.7-.765 1.773.531 2.153 1.213 1.657.742-.116 1.469-.328 1.477 1.227 1.922 1.935 1.556.825 1.637.132 1.634.716 1.03 1.103 1.935 2.614-.178 1.875-.103 2.35-.549 1.934-1.153 2.32-.406 1.036-1.993 3.619-.608 1.262.055 1.547.318 1.409.103 1.248.985.818.827 1.621-.732 1.379-.744.7-.223 1.591-.394 1.715.546 2.248-.08.693 2.125 1.417-.148 2.065-.441 2.014-.238 1.496.856 2.102-4.436 4.391-2.569 1.181-2.506.977.381 1.204-.253 1.401.504 1.38.526 3.321-.221 1.007 1.94 1.446.396 1.299.506.796.632.387-.253 1.401-.792.999 2.029 2.307 1.604.526.662.577-.286 1.795-.855 1.204.519 1.474-.484 1.146-1.354 2.254-1.228 1.846-.206 1.102.459 1.095-.792.999-.789.416.702 2.029.303 1.314.672 1.839 1.992-.021 1.236.001 1.584 1.599-.392 1.423.331 2.087-.361 1.321-.842 1.882-.699.985 1.767 2.154 2.203 1.307.398.715.271 1.708-.439 1.43-.444 2.598.208 1.912 1.732-.466 4.395 1.644 2.153 2.19.228.839-.07 1.956 2.366-.663 1.236.001 1.616 1.205 2.211-.444 1.281.285 3.098 1.556 1.033.519 1.06 1.292 1.035-.065.559-.671.576-1.16 1.271-.977.789-.416 2.256-.159.96-.54.328-.927 3.689.491 1.033.519 1.266.19 2.01-.51 1.471-.911-.596-1.365 1.581-1.415 1.779-.765 1.566-1.51.762-1.189 1.754 1.475.812 1.526 3.385-.531 2.551-.692 2.363-.079 1.762-.276 1.125.504.687 1.934-.176 1.292-.173.708.05 2.715-.191 1.197.534 1.569.842 1.715-1.261 2.24.674 1.256.611 1.46.178 1.722 1.21 2.241 1.158.11.91.343 1.716-.269 1.539 1.314 1.261 1.358 2.679 1.913 1.276 1.453 1.218.49.21 1.328-.191 1.197.569.591 1.922-1.663 1.346-.503 1.02-.16.887 2 2.12 2.585.504 1.38.241 1.518 1.015 1.008.672 1.839 1.553 1.701 1.306 1.643.073 1.058 2.175.534 2.353-1.342 2.581-.502 4.882-.377 3.968-1.498 3.355-2.52.35 1.307.657 1.745.759 1.194 2.178 1.603 1.733 1.041.729 1.004.413.81-.041.639-.442.507-.406 1.036.149 1.241.217 1.668.802 2.062 1.058 1.876.719 1.54.288 1.219.282.88.492.409 1.025.471 1.247.825.653.821.113.712-.12 1.04-.263 1.937-.623 2.966-.476 1.047-1.288 1.466-1.332.89-1.446.47-2.079.375-.075 1.325-.657 1.853-.941 1.558-1.033 1.28-2.697 2.319-1.465 1.251-.692 1.032-.802 1.536-.808 1.196-.376 1.226-1.142-.307-.974.153-1.108.806-1.581 1.415-.862 1.156-1.397 1.678-2.16 1.214-3.385.531-2.57-.326-.751-1.438-.502-1.671.005-1.168-.08-1.106-.36-.77-.36-.77-1.019-.132-1.264-.482-.947-.581-.601-.197-.927.145-1.159.182-1.168.426-.237 1.204-.378 1.81-.684 1.08-.97 1.076-1.591.152-1.908.251-1.307.448-1.937-.377-3.331-1.228-2.789-1.41-1.034-.227-1.351-.128-2.114-.446-1.405-.169-.617-.292-.608-.537-.887-.201-.657.054-1.268.393-.952-1.358-1.664-.906-1.898-.286-.748 1.576-1.536 3.499-1.232 2.722-1.236 1.798-.467.948-.798.66-.929.437-.668.883-.358.737-1.989-.709-1.293-.964-1.614-1.789-1.252.196-2.006-.366-.619.292.044.577-.335.587-.249.525-2.614.896-.643.441-1.109 1.098-1.003 1.47-1.484 2.032-.599 1.018-.868.817-.519.324-1.066.167-1.253-1.311-1.02-1.639-.596-1.365-.341-1.551-.85.036-1.623.255-.628.536-1.704 1.24-1.455.714-1.135.032-1.242-.34-1.209-.734-1.227-.245-1.654.357-.373.642-.518 1.832-.402 3.758.026 1.066-1.841.678-1.901.298-.311.438-.083 1.277.17 1.675-.393 1.569.188 1.186.074 2.565-.074 1.033-1.368.215-1.045.602-1.434 1.149.481 1.237 1.644 1.979.143.901-.331 1.511.119 1.051.613 1.168 1.006 1.252 1.366 2.022.58 1.562-1.03.696-1.672.846-.906.58-1.575-.045-1.932.4-1.321.061-1.365-2.314-1.456-.793-1.965-1.004-1.434-.65-2.911-.078-1.149-.355-2.536-1.012-.882.284-.906.58-.762 1.189-.405.744-1.675-.077-1.861-.048-.887-.201-.638-.726-1.333-.617-1.101-.654-.87-.544-.197-.942-.461-.511-1.054-.953-1.076-1.095-.907-.927-1.381-.318-2.718-.06-2.085.035-1.91.543-2.179-1.457-1.234-.293-.702-.23-1.128.08-1.066.167-.758.313-1.228.047-3.593.418-1.073-.172-1.194-.639-.668-.916-.652-1.113-.585-.394-.726-.081-.881.138-2.417-.107-.654 1.27-.469 1.24-1.662.309-1.744-.212-.882.43-1.52-.296-1.158-.11-1.028.113-.778 1.24-1.361.408-1.17 2.809.133 1.438.752 1.146.827 1.621 1.243 1.847 1.509 1.125-.178 1.876-1.055 1.138-1.008.839.208 1.912.872 1.905 1.411 2.307-2.303.459-2.754 1.21-.328.927.18 1.139.276.54-.419.357-.965 1.707-1.018-.424-2.143-.928-2.253-.424-2.02-.753-1.341-.665-1.847-1.461-1.996.897-.607.97-.346 1.416-1.496-.446-2.08-1.132-2.424-.3-.805.321-.882.43-2.228.933-1.719 1.145-1.664-.906-.13-2.022-.807-2.693-.411-1.394-.361-2.277-1.82-.687-1.464-.84-2.466-1.169-1.138-1.183-.734-1.635-.787-.168-.677-.672-.441-1.584-.637-2.817-1.213-1.657-.333-1.504.038-1.562-2.479-1.848-1.946.014-.887 1.598-1.426 1.196-1.717.561-.253 1.401.534 1.569.689 1.35-1.293 2.634-1.088 1.532-2.754 4.808-.9.919.581 1.27-.391 1.131-1.271.977-1.95.889-.544.766-5.165-2.009-1.175.379-.779 1.678-2.163 3.743-1.248.974-.499 1.051-.721 2.35-1.85-.877-1.503-.785-1.019-.132-3.064-.443-1.912-.672-2.87-.717-1.817-1.271-1.021-1.347.397-.792.049-.591-.845-2.931-.491-2.5-.666-1.354-2.72.955-2.63-.035-1.227-1.299-3.274-1.799-2.576-1.535-2.37.223-2.711-.544-1.492-.213-.992-.739-1.35-.236-.971-.146-1.134-.717-1.313-.465-1.078.095-1.696.341-1.565.246-1.346 1.628-.688.257-1.634-.191-.996.156-.821.8-1.719.195-1.694-.107-.767-.7-1.913-1.49-2.945-1.104-1.169-.935-3.545-2.129-1.013-1.333-.396-1.579-2.224-.695-3.123-1.076-2.205.346-1.544.839-1.542.391-1.363-5.381-.052-1.707-.006-1.416-.138-.873 5.178-.216 2.703-.424.42-1.259 1.203-1.606 1.286-1.545-.115-3.488.196-1.523-.759-2.492-1.267-2.934.709-2.424 1.28-2.961.581-2.776.221-1.825-.779-.773-.911-.23-.854.134.213-2.793.336-1.097-1.357-1.204-.684-.892 1.807-2.94 2.19-5.716 1.042-1.394 1.295-2.592 1.758-2.465 1.845-1.506 1.597-1.485.558-1.249-.088-.96-.593-2.555-.095-1.795.685-2.044 1.159-2.258.112-1.29.197-1.541 1.329-3.17.947-.803 2.891-.888 1.837.028 3.641.26 1.558.27.444.398.302 1.107.787.587.748-.063.763-.761.966-1.894.432-.846-.262-1.651-.585-1.31-.774-1.695-.272-.918-.005-1.228.193-1.576-.117-1.933.068-1.565.008-1.551-1.481-1.766-1.636-1.552-.969-.938.653-1.858.857-1.37.173-2.48.209-3.076.106-2.91.887-3.176-.919-1.412-.618-1.908.032-2.59-1.445-.741-.885-2.008-.735-1.436.204-1.115-.232-1.461-.729-1.812-.262-1.651.836-1.098 1.387-2.417 2.849-5.937 1.795-4.611.857-3.365.731-3.355-.13-2.411-.518-1.682-.749-.329-.553.09-.47-.57-.18-1.135.413-.984 1.053-1.326.498-.843-.253-1.189-.888-1.223-4.047-1.628-1.816-.692 2.054-6.576 1-1.26 1.194-1.233.006-.767-.517-1.272-.428-1.096 1.292-4.212 2.378-4.512.762-2.774-.24-1.513-.487-1.083.604-2.168.831-1.934 1.621-4.126 2.403-4.767 1.434-3.71 1.907-3.105 4.461-.55 3.337-.865 1.879.304 1.329 1.996 2.087 3.213 1.642 2.388 1.064 1.13 1.372.686 1.995-.952 2.28-.357 1.356-2.214 1.176-1.354 2.247-4.554 1.451-2.805-.048-1.093-3.079.094-2.052-.585-.888-1.615-.281-1.771.24-2.085.588-.668.682-1.669.147-3.061.683-3.272.917-2.987.58-3.908.797-3.743 1.191-2.052.58-1.913.522-3.895.19-5.975.419-2.144.776-1.085-.191-1.204-.71-2.083.041-1.737 1.314-2.08 1.228-3.806 1.594-3.105.313-1.211-.022-2.132 1.147-1.133.922-.156 1.867.609 1.851 1.325 1.323.376 2.989-.269 1.901-5.544 1.178-4.133 1.454-3.572 2.9-6.02 1.042-3.781.511-1.167 3.513 1.055 4.069.572 6.574.021 5.06.436 5.31 1.626 2.768.725 1.889-4.811.217-3.416.399-2.264 3.266-4.108.825-1.167 1.511-8.002.874-2.461 2.063-2.125 1.652-2.334 1.23-4.198.422-2.126 1.319-2.027z" fill="#f3f5f7" stroke="#a0b0c0"/></svg>