<svg xmlns="http://www.w3.org/2000/svg" width="256" height="128"><g transform="translate(0 -924.362)"><g stroke="#00aadf"><path d="M54 1018.862c0-5.799-4.701-10.5-10.5-10.5s-10.5 4.701-10.5 10.5 4.701 22.5 10.5 22.5 10.5-16.701 10.5-22.5z" fill="#f3fcff" stroke-width="2"/><path d="M48.009 1018.855c0 2.485-2.015 4.5-4.5 4.5s-4.5-2.015-4.5-4.5 2.015-4.5 4.5-4.5 4.5 2.015 4.5 4.5z" fill="#fff" stroke-width="1.213" stroke-linecap="round"/></g><path d="M115.311 943.9c7.71 6.001-5.626 24.382 2.913 29.133 19.353 10.764 37.817-32.711 59.712-29.133 2.829.462 4.984 3.397 6.082 6.018 9.309 22.239 9.309 49.975 0 72.214-1.097 2.621-3.433 4.932-6.082 6.018-29.966 12.282-67.339 12.282-97.306 0-2.649-1.086-4.984-3.397-6.082-6.018-9.309-22.239-15.754-53.991 0-72.214 8.974-10.38 29.93-14.448 40.761-6.018z" fill="#f8fafc" stroke="#c8d8e8" stroke-width="2" stroke-dasharray="7.99999894, 3.99999948"/><g><path d="M25.834 960.208c0-5.799-4.701-10.5-10.5-10.5s-10.5 4.701-10.5 10.5 4.701 22.5 10.5 22.5 10.5-16.701 10.5-22.5z" fill="#fcf0ec" stroke="#df521e" stroke-width="2" transform="translate(111.166 43.654)"/><path d="M113.453 79.598c0 1.482-1.244 2.683-2.778 2.683s-2.778-1.201-2.778-2.683c0-1.482 1.244-2.683 2.778-2.683s2.778 1.201 2.778 2.683z" transform="matrix(1.62 0 0 1.677 -52.784 870.369)" fill="#fff" stroke="#df521e" stroke-width="1.213" stroke-linecap="round"/></g><g><path d="M25.834 960.208c0-5.799-4.701-10.5-10.5-10.5s-10.5 4.701-10.5 10.5 4.701 22.5 10.5 22.5 10.5-16.701 10.5-22.5z" fill="#fcf0ec" stroke="#df521e" stroke-width="2" transform="translate(148.166 18.654)"/><path d="M113.453 79.598c0 1.482-1.244 2.683-2.778 2.683s-2.778-1.201-2.778-2.683c0-1.482 1.244-2.683 2.778-2.683s2.778 1.201 2.778 2.683z" transform="matrix(1.62 0 0 1.677 -15.784 845.369)" fill="#fff" stroke="#df521e" stroke-width="1.213" stroke-linecap="round"/></g><g><path d="M25.834 960.208c0-5.799-4.701-10.5-10.5-10.5s-10.5 4.701-10.5 10.5 4.701 22.5 10.5 22.5 10.5-16.701 10.5-22.5z" fill="#fcf0ec" stroke="#df521e" stroke-width="2" transform="translate(76.166 4.654)"/><path d="M113.453 79.598c0 1.482-1.244 2.683-2.778 2.683s-2.778-1.201-2.778-2.683c0-1.482 1.244-2.683 2.778-2.683s2.778 1.201 2.778 2.683z" transform="matrix(1.62 0 0 1.677 -87.784 831.369)" fill="#fff" stroke="#df521e" stroke-width="1.213" stroke-linecap="round"/></g><g stroke="#00aadf"><path d="M230 938.862c0-5.799-4.701-10.5-10.5-10.5s-10.5 4.701-10.5 10.5 4.701 22.5 10.5 22.5 10.5-16.701 10.5-22.5z" fill="#f3fcff" stroke-width="2"/><path d="M224.009 938.855c0 2.485-2.015 4.5-4.5 4.5s-4.5-2.015-4.5-4.5 2.015-4.5 4.5-4.5 4.5 2.015 4.5 4.5z" fill="#fff" stroke-width="1.213" stroke-linecap="round"/></g><g stroke="#00aadf"><path d="M238 1004.862c0-5.799-4.701-10.5-10.5-10.5s-10.5 4.701-10.5 10.5 4.701 22.5 10.5 22.5 10.5-16.701 10.5-22.5z" fill="#f3fcff" stroke-width="2"/><path d="M232.009 1004.855c0 2.485-2.015 4.5-4.5 4.5s-4.5-2.015-4.5-4.5 2.015-4.5 4.5-4.5 4.5 2.015 4.5 4.5z" fill="#fff" stroke-width="1.213" stroke-linecap="round"/></g><g stroke="#00aadf"><path d="M30 946.862c0-5.799-4.701-10.5-10.5-10.5s-10.5 4.701-10.5 10.5 4.701 22.5 10.5 22.5 10.5-16.701 10.5-22.5z" fill="#f3fcff" stroke-width="2"/><path d="M24.009 946.855c0 2.485-2.015 4.5-4.5 4.5s-4.5-2.015-4.5-4.5 2.015-4.5 4.5-4.5 4.5 2.015 4.5 4.5z" fill="#fff" stroke-width="1.213" stroke-linecap="round"/></g></g></svg>