<?xml version="1.0" encoding="utf-8"?>
<!-- Generator: Adobe Illustrator 19.1.0, SVG Export Plug-In . SVG Version: 6.00 Build 0)  -->
<!DOCTYPE svg PUBLIC "-//W3C//DTD SVG 1.1//EN" "http://www.w3.org/Graphics/SVG/1.1/DTD/svg11.dtd">
<svg version="1.1" id="Layer_1" xmlns="http://www.w3.org/2000/svg" xmlns:xlink="http://www.w3.org/1999/xlink" x="0px" y="0px"
	 viewBox="0 166 512 181" style="enable-background:new 0 166 512 181;" xml:space="preserve">
<style type="text/css">
	.st0{fill:#00B3DC;}
	.st1{fill:#0B9FC4;}
	.st2{enable-background:new    ;}
</style>
<g id="tint_3_">
	<g>
		<g>
			<g>
				<path class="st0" d="M3,290.1c0,33.7,29.4,53.3,59.6,54.8c28.3-1.6,59.6-21.5,59.6-55.2c0-46-45.1-72.4-59.6-120.8
					C47.5,217.3,3,244,3,290.1z"/>
			</g>
		</g>
		<g>
			<path class="st1" d="M3.1,289.4c0,34.6,29.3,53.7,59.5,55.3c28.3-1.6,61-22.7,59.5-56.5C87.9,349.4,34.1,349.3,3.1,289.4z"/>
		</g>
	</g>
</g>
<g class="st2">
	<path class="st1" d="M137.1,198.1c-0.3-1,0.3-1.8,1.3-1.8h6.8c0.6,0,1.2,0.5,1.3,1l7.7,29.5h0.3l11.8-30.5c0.1-0.4,0.5-0.8,1.3-0.8
		h1.3c0.7,0,1.1,0.4,1.3,0.8l11.8,30.5h0.3l7.6-29.5c0.1-0.5,0.7-1,1.3-1h6.8c1,0,1.6,0.7,1.3,1.8l-14,49.8c-0.1,0.6-0.7,1-1.3,1
		h-1.2c-0.7,0-1.1-0.4-1.3-0.8l-13.3-33.5H168l-13.1,33.5c-0.2,0.4-0.5,0.8-1.3,0.8h-1.2c-0.6,0-1.2-0.4-1.3-1L137.1,198.1z"/>
	<path class="st1" d="M199.4,246.3l23-49.8c0.2-0.4,0.6-0.8,1.3-0.8h0.7c0.7,0,1,0.4,1.3,0.8l22.8,49.8c0.4,1-0.1,1.9-1.3,1.9h-6.4
		c-1.1,0-1.6-0.4-2.1-1.5l-3.6-8h-22.1l-3.6,8c-0.3,0.7-1,1.5-2.1,1.5h-6.4C199.5,248.2,198.9,247.2,199.4,246.3z M231.3,230.5
		l-7.4-16.3h-0.2l-7.3,16.3H231.3z"/>
	<path class="st1" d="M259.4,205.2h-11.3c-0.8,0-1.4-0.7-1.4-1.4v-6.1c0-0.7,0.6-1.4,1.4-1.4h32.4c0.8,0,1.4,0.7,1.4,1.4v6.1
		c0,0.7-0.6,1.4-1.4,1.4h-11.3v41.5c0,0.7-0.7,1.4-1.4,1.4h-6.9c-0.7,0-1.4-0.7-1.4-1.4V205.2z"/>
	<path class="st1" d="M289.6,197.8c0-0.7,0.6-1.4,1.4-1.4h30.1c0.8,0,1.4,0.7,1.4,1.4v6.1c0,0.7-0.6,1.4-1.4,1.4h-21.9v12.1h18.3
		c0.7,0,1.4,0.7,1.4,1.4v6.1c0,0.8-0.7,1.4-1.4,1.4h-18.3v13h21.9c0.8,0,1.4,0.7,1.4,1.4v6.1c0,0.7-0.6,1.4-1.4,1.4H291
		c-0.8,0-1.4-0.7-1.4-1.4V197.8z"/>
	<path class="st1" d="M333.1,197.8c0-0.7,0.6-1.4,1.4-1.4h21.2c8.9,0,16.1,7.1,16.1,15.9c0,6.8-4.5,12.4-11,15L371,246
		c0.5,1,0,2.1-1.3,2.1H362c-0.7,0-1-0.4-1.2-0.7l-9.8-19.6h-8.2v18.9c0,0.7-0.7,1.4-1.4,1.4h-6.8c-0.8,0-1.4-0.7-1.4-1.4V197.8z
		 M354.9,220c3.9,0,7.3-3.4,7.3-7.6c0-3.9-3.4-7.2-7.3-7.2h-12.1V220H354.9z"/>
</g>
<g class="st2">
	<path class="st1" d="M141.7,271.3c0-0.7,0.6-1.4,1.4-1.4h21.2c8.9,0,16.1,7.1,16.1,15.9c0,6.8-4.5,12.4-11,15l10.1,18.8
		c0.5,1,0,2.1-1.3,2.1h-7.8c-0.7,0-1-0.4-1.2-0.7l-9.8-19.6h-8.2v18.9c0,0.7-0.7,1.4-1.4,1.4h-6.8c-0.8,0-1.4-0.7-1.4-1.4V271.3z
		 M163.5,293.5c3.9,0,7.3-3.4,7.3-7.6c0-3.9-3.4-7.2-7.3-7.2h-12.1v14.7H163.5z"/>
	<path class="st1" d="M191.1,271.3c0-0.7,0.6-1.4,1.4-1.4h30.1c0.8,0,1.4,0.7,1.4,1.4v6.1c0,0.7-0.6,1.4-1.4,1.4h-21.9v12.1H219
		c0.7,0,1.4,0.7,1.4,1.4v6.1c0,0.8-0.7,1.4-1.4,1.4h-18.3v13h21.9c0.8,0,1.4,0.7,1.4,1.4v6.1c0,0.7-0.6,1.4-1.4,1.4h-30.1
		c-0.8,0-1.4-0.7-1.4-1.4V271.3z"/>
	<path class="st1" d="M234.6,271.3c0-0.7,0.6-1.4,1.4-1.4h17.4c9.1,0,16.6,7.4,16.6,16.4c0,9.2-7.5,16.7-16.5,16.7h-9.3v17.4
		c0,0.7-0.7,1.4-1.4,1.4H236c-0.8,0-1.4-0.7-1.4-1.4V271.3z M252.8,293.9c4.1,0,7.6-3.3,7.6-7.7c0-4.1-3.5-7.2-7.6-7.2h-8.6v14.9
		H252.8z"/>
	<path class="st1" d="M301.3,269.1c14.8,0,26.7,11.9,26.7,26.7s-11.8,26.6-26.7,26.6s-26.6-11.8-26.6-26.6S286.5,269.1,301.3,269.1z
		 M301.3,312.8c9.3,0,17-7.6,17-17s-7.7-17.1-17-17.1s-17,7.8-17,17.1S292,312.8,301.3,312.8z"/>
	<path class="st1" d="M337.7,271.3c0-0.7,0.6-1.4,1.4-1.4h21.2c8.9,0,16.1,7.1,16.1,15.9c0,6.8-4.5,12.4-11,15l10.1,18.8
		c0.5,1,0,2.1-1.3,2.1h-7.8c-0.7,0-1-0.4-1.2-0.7l-9.8-19.6h-8.2v18.9c0,0.7-0.7,1.4-1.4,1.4h-6.8c-0.8,0-1.4-0.7-1.4-1.4V271.3z
		 M359.5,293.5c3.9,0,7.3-3.4,7.3-7.6c0-3.9-3.4-7.2-7.3-7.2h-12.1v14.7H359.5z"/>
	<path class="st1" d="M394,278.7h-11.3c-0.8,0-1.4-0.7-1.4-1.4v-6.1c0-0.7,0.6-1.4,1.4-1.4H415c0.8,0,1.4,0.7,1.4,1.4v6.1
		c0,0.7-0.6,1.4-1.4,1.4h-11.3v41.5c0,0.7-0.7,1.4-1.4,1.4h-6.9c-0.7,0-1.4-0.7-1.4-1.4V278.7z"/>
	<path class="st1" d="M424.1,271.3c0-0.7,0.6-1.4,1.4-1.4h30.1c0.8,0,1.4,0.7,1.4,1.4v6.1c0,0.7-0.6,1.4-1.4,1.4h-21.9v12.1H452
		c0.7,0,1.4,0.7,1.4,1.4v6.1c0,0.8-0.7,1.4-1.4,1.4h-18.3v13h21.9c0.8,0,1.4,0.7,1.4,1.4v6.1c0,0.7-0.6,1.4-1.4,1.4h-30.1
		c-0.8,0-1.4-0.7-1.4-1.4V271.3z"/>
	<path class="st1" d="M467.7,271.3c0-0.7,0.6-1.4,1.4-1.4h21.2c8.9,0,16.1,7.1,16.1,15.9c0,6.8-4.5,12.4-11,15l10.1,18.8
		c0.5,1,0,2.1-1.3,2.1h-7.8c-0.7,0-1-0.4-1.2-0.7l-9.8-19.6h-8.2v18.9c0,0.7-0.7,1.4-1.4,1.4h-6.8c-0.8,0-1.4-0.7-1.4-1.4V271.3z
		 M489.4,293.5c3.9,0,7.3-3.4,7.3-7.6c0-3.9-3.4-7.2-7.3-7.2h-12.1v14.7H489.4z"/>
</g>
</svg>
